<svg width="301" height="99" viewBox="0 0 301 99" fill="none" xmlns="http://www.w3.org/2000/svg">
<path d="M115.372 85.8165C104.193 78.615 89.0207 77.3512 64.5526 84.1396C38.4682 90.2693 29.7712 94.1987 18.3496 86.3107C13.9617 82.4358 12.3886 76.1968 13.5633 67.2099C16.2879 52.5598 23.6509 38.4613 36.7294 22.8227C44.0296 14.6876 50.8012 7.70615 59.743 4.90268C66.596 3.14399 65.9553 8.52973 65.1261 9.29998C64.251 9.29998 62.7812 9.4378 61.6451 10.1791C60.7231 10.8942 58.1923 13.2031 58.0564 16.3088C57.8603 21.0633 62.7808 20.0737 64.903 17.4633C67.1905 14.5216 70.5712 8.88838 67.9119 3.63821C66.7973 1.76948 64.8715 0.477968 62.4803 0.0382009C54.2926 -0.429732 46.6671 3.47334 39.6297 7.78839C24.239 18.4799 11.9274 33.2945 4.96097 49.5107C0.944475 59.2949 -2.68783 73.3103 2.75687 84.7176C6.96865 92.6327 15.7129 96.8369 26.1453 95.9578C33.4621 95.189 42.3096 92.8242 48.2602 91.3964C54.2108 89.9663 84.6711 79.4956 94.6795 97.7191C94.6795 97.7191 98.0076 91.2585 106.325 91.1207C113.163 90.4898 123.027 93.1002 130.211 98.3763C127.818 94.7771 121.032 89.4724 115.372 85.8165Z" fill="#1434CB" fill-opacity="1"/>
<path d="M67.6587 24.664C61.9616 20.9262 50.5112 28.0721 41.3399 40.3296C32.9531 51.3246 29.3317 64.1033 33.2727 70.0126C39.1354 76.9659 50.0188 66.852 54.6471 61.4384L55.2442 60.8057C58.3917 57.425 60.8233 53.357 63.1769 49.454C63.1769 49.454 65.3401 45.881 65.4433 45.7157C66.7803 45.4694 68.3906 45.0844 70.2053 44.5621C70.1794 44.6439 63.2625 56.2702 63.9682 62.0408C64.1879 63.8014 64.02 70.2327 70.2992 72.1836C78.6679 73.5863 85.3504 67.0991 91.2458 61.3273C91.2458 61.3273 92.2504 60.3663 92.8186 59.8176C92.6747 60.3933 92.4873 61.1613 92.4873 61.1613C90.0373 69.6817 93.3398 71.4694 95.4057 72.1292C101.649 73.9442 109.108 64.8736 109.132 64.8736C108.939 67.7308 108.373 70.0945 111.385 71.991C114.228 73.0087 117.105 71.4573 119.292 70.0006C127.169 64.4489 133.515 55.7598 138.641 48.2488H135.371C135.333 48.2488 127.303 59.8863 122.09 62.4156C122.081 62.4156 121.133 62.9027 120.586 62.5174C119.909 61.9398 120.176 60.7396 120.594 59.8893C120.62 59.8337 140.725 24.9648 140.725 24.9648H131.232C131.232 24.9648 130.195 26.6424 130.111 26.7524C130.047 26.6976 129.895 26.4092 129.789 26.271C123.908 18.1358 110.59 30.6491 100.564 45.1603C96.7033 50.7402 91.7884 57.0228 86.6923 61.5575C86.6923 61.5575 79.1426 68.4781 75.9166 63.5058C74.7374 61.4167 75.1002 58.3623 75.7653 56.3565C79.5212 45.665 85.993 35.962 93.3575 30.1072C95.4365 28.4867 97.6962 28.018 98.8176 28.7053C99.886 29.3384 100.058 30.9037 99.3824 31.9759C97.6673 31.9211 96.2932 32.4424 95.1759 33.5968C92.9752 35.9057 92.2106 38.1323 92.9102 40.2215C96.3093 45.0585 103.088 35.4937 102.76 29.6671C102.643 27.5779 101.529 25.5995 99.8654 24.6366C97.3864 23.1532 93.6046 23.5373 91.1572 24.7199C87.8809 25.9563 82.6945 30.2709 79.6672 33.6246C75.8562 37.8303 69.3201 42.5022 67.276 41.979C67.9456 40.1918 73.4666 28.8961 67.6587 24.664ZM113.423 41.3744C115.27 38.8188 120.644 31.9748 121.955 30.8207C126.361 26.9439 128.123 28.6497 128.275 29.8582C124.163 37.2238 119.309 45.662 114.745 53.2481C114.754 53.2211 113.317 55.4192 113.317 55.4192C111.301 58.4968 109.272 61.1354 105.961 62.9767C105.489 63.1149 104.711 63.1701 104.193 62.784C103.57 62.3717 103.324 61.6844 103.394 60.9694C103.592 58.6064 105.998 51.3794 113.423 41.3744ZM61.7836 45.7991C61.7836 45.7991 61.701 46.0473 61.6601 46.1285C61.6496 46.1285 57.5215 52.8613 57.5215 52.8613C55.0301 56.1875 51.9195 60.3663 48.031 62.3717C46.8785 62.7566 45.2854 63.0045 44.4735 61.9883C42.7523 59.9265 43.6394 57.0682 44.3601 54.7597L44.6151 53.935C46.6813 48.3288 49.9599 43.3806 53.1509 38.7906C53.1907 38.7636 53.2801 38.7362 53.3124 38.7362C53.3199 38.7636 53.3327 38.7636 53.3383 38.8188C55.3407 42.6659 59.0955 44.4516 61.9034 45.2775C61.9203 45.2775 61.9383 45.3049 61.9383 45.3601C61.9387 45.442 61.8929 45.5528 61.7836 45.7991ZM65.6946 37.857C65.6766 37.9118 63.8559 42.0891 63.8559 42.0891C63.5926 42.3088 63.1765 42.1991 62.6996 42.0891L61.8824 41.9509C59.3163 41.1543 57.3807 39.4501 56.7839 37.4165C55.9607 33.4586 59.3418 30.3528 60.8316 29.2265C62.2609 28.2362 64.4831 27.7142 65.7735 28.7316C66.5692 29.6663 66.8708 30.8752 66.8708 32.1952C66.8712 33.9813 66.3199 35.9875 65.6946 37.857Z" fill="#1434CB" fill-opacity="1"/>
<path d="M185.698 50.6088C184.783 48.6304 182.61 47.3659 180.294 47.503C172.774 48.1906 165.419 54.3744 161.558 63.2512C159.531 67.8141 158.425 71.579 157.7 77.5705C160.038 74.8778 164.808 70.4531 170.22 68.0342C170.22 68.0342 170.956 62.2902 174.712 57.1779C176.133 55.0609 178.977 51.6532 182.17 52.5597C184.96 53.4949 183.98 61.218 180.272 68.6922C177.528 74.1898 173.329 79.6882 169.081 83.4801C165.325 86.6686 159.768 90.5161 154.906 87.5481C151.844 85.7349 150.282 81.9412 150.612 77.0489C152.075 63.1697 158.393 51.3512 167.435 37.8841C176.757 25.3787 187.034 12.5436 200.877 5.69881C203.701 4.26985 206.316 3.94011 208.577 4.81965C208.577 4.81965 195.581 11.9656 189.386 25.186C187.811 28.5397 185.619 33.0733 187.826 37.0864C188.979 39.1748 191.027 39.3401 192.676 39.23C200.269 37.4706 205.175 30.3799 209.183 23.8941C211.507 18.9744 213.573 14.0822 213.573 8.6401C213.573 7.98064 213.538 7.10148 213.482 6.44127C217.11 4.51808 224.549 7.92544 224.549 7.92544C230.362 9.85012 242.74 19.3327 246.915 21.1459C248.952 18.7825 252.299 15.2099 254.183 13.4231L251.455 11.7463C247.088 9.08025 242.471 6.5513 237.927 4.05053C227.607 -1.58308 219.207 0.395312 214.932 1.93469C213.252 2.53894 211.716 3.06133 211.716 3.06133C208.544 -0.401602 203.34 -0.0726213 199.506 0.862494C185.718 4.82002 172.917 14.4667 159.193 31.2053C149.102 44.3157 142.844 55.6396 139.508 66.8253C136.936 74.3555 136.155 85.4319 142.431 92.001C147.767 97.5786 154.843 96.3705 159.839 94.3647C170.665 89.0326 180.395 77.5435 185.244 64.3234C186.414 60.3937 187.712 54.842 185.698 50.6088ZM210.591 9.19028C209.158 25.6262 196.383 35.274 193.222 36.0424C191.306 36.4266 188.037 35.5752 190.955 28.6775C195.253 19.3868 202.589 11.4995 210.461 7.459C210.653 8.14626 210.648 8.5849 210.591 9.19028Z" fill="#1434CB" fill-opacity="1"/>
<path d="M286.377 11.2784C279.505 15.1818 272.381 17.7096 263.757 16.8305C261.367 19.5247 259.04 22.3003 256.896 25.1583C268.999 28.2366 281.831 21.393 288.987 14.8799C296.557 8.31078 300.439 0.0385742 300.439 0.0385742C300.439 0.0385742 294.765 6.5243 286.377 11.2784Z" fill="#1434CB" fill-opacity="1"/>
<path d="M151.415 33.2273L156.502 24.9652H147.487L142.402 33.2273H151.415Z" fill="#1434CB" fill-opacity="1"/>
<path d="M263.721 86.5815C262.751 87.2409 261.39 86.7339 261.899 85.2227C263.167 81.3748 268.209 73.5334 268.209 73.5334L282.253 48.6248H272.633C272.176 49.3759 271.198 51.1008 271.198 51.1008C270.753 50.3594 269.422 48.7108 268.874 48.3547C266.524 46.8694 263.076 47.5717 260.697 48.9181C250.355 54.9655 242.809 66.9136 236.858 76.2313C236.858 76.2313 230.593 86.589 227.116 87.3592C224.401 87.5793 224.681 83.9222 224.799 83.0701C225.848 76.9126 228.286 71.0589 230.742 65.7543C235.737 62.2913 241.438 57.7566 246.619 52.7821C257.862 42.0346 267.341 29.859 268.726 27.1381C268.726 27.1381 267.226 27.4408 265.456 27.4953C256.806 39.5609 239.106 57.0968 233.739 59.7072C236.117 53.9895 251.475 26.698 264.546 13.6432L266.603 11.6637C269.783 8.55787 273.078 5.36984 275.646 4.84745C275.917 4.82003 276.267 4.84745 276.568 5.48063C276.683 7.89878 275.782 9.68564 274.75 11.7192L273.302 14.6879C273.302 14.6879 275.352 14.303 276.699 13.8621C278.261 10.9227 279.991 7.6235 279.354 3.69414C279.141 2.42967 278.225 1.46789 277.029 1.24782C273.13 0.505734 268.881 3.3907 265.462 5.72774L265.324 5.80961C247.748 19.5795 232.906 39.4234 219.931 66.5234C218.99 67.2369 215.357 68.0898 214.739 67.6771C216.02 65.0392 217.634 61.4929 218.441 57.6451C218.581 56.5455 218.711 55.4192 218.711 54.32C218.711 51.9544 218.143 49.7289 216.024 48.1903C213.539 46.9532 210.468 47.5308 208.398 48.4648C199.122 52.3126 192.19 61.823 187.188 69.6551C184.498 74.6311 181.815 79.9605 181.072 86.0632C180.549 90.8447 181.614 93.923 184.333 95.4628C187.129 96.891 190.647 95.4065 192.03 94.6925C201.426 89.7454 207.992 79.8242 213.167 70.7536C213.373 70.7265 216.199 70.6447 218.336 70.0941C218.364 70.0941 218.376 70.0941 218.424 70.123C218.301 70.5335 217.197 73.8327 217.197 73.8327C213.917 83.4516 212.4 89.9937 215.498 93.8682C219.926 99.3381 227.255 93.6767 233.218 86.1995C231.938 95.1593 236.582 96.5616 240.121 95.8751C244.187 94.7763 248.718 90.4327 250.821 88.2072C250.146 90.8176 250.329 95.4906 254.028 95.9574C256.563 96.4261 258.461 95.0471 260.656 93.8648C268.531 89.5768 277.958 75.2883 280.405 71.1573H277.196C273.717 76.4154 269.29 83.3093 263.721 86.5815ZM193.036 85.6245C192.536 84.8825 192.371 84.0709 192.354 83.1936C192.258 77.8045 198.056 68.1533 202.149 62.8956C202.158 62.8956 202.158 62.8956 202.158 62.8956C203.873 66.6511 207.757 69.0651 210.101 70.0825C207.189 76.5693 197.202 90.4616 193.036 85.6245ZM211.745 67.1825C211.467 67.3759 206.57 65.7261 205.623 61.1914C204.82 57.2872 207.509 54.2366 210.11 52.6987C211.226 51.8188 212.908 51.5172 214.142 51.9551C215.287 52.7257 215.597 54.101 215.597 55.5829C215.597 56.4917 215.476 57.4254 215.37 58.2771C215.37 58.2771 215.35 58.4427 215.347 58.4701C214.53 61.52 213.282 64.5161 211.745 67.1825ZM251.026 83.8933C251.021 83.8933 250.096 84.7176 250.096 84.7176C248.775 85.8987 247.416 87.1632 245.775 86.5307C245.321 86.3659 245.002 85.762 244.926 85.2933C244.851 81.9126 246.374 78.7802 247.85 75.73L248.228 74.9323C252.475 67.8416 257.411 59.4864 264.661 53.6879C265.883 52.8065 267.208 52.0659 268.608 52.6435C268.929 52.9451 269.304 53.4678 269.304 53.9895C269.304 54.1551 269.157 54.5945 269.073 54.7312C267.048 58.0033 265.12 61.4385 263.244 64.7362C259.58 71.2504 255.778 77.9833 251.026 83.8933Z" fill="#1434CB" fill-opacity="1"/>
</svg>
