<svg width="79" height="48" viewBox="0 0 79 48" fill="none" xmlns="http://www.w3.org/2000/svg">
<path fill-rule="evenodd" clip-rule="evenodd" d="M30.1647 41.5843L24.8251 47.9998L5.81789 32.798L11.2571 26.1235L30.1647 41.5843Z" fill="#F97C00"/>
<path fill-rule="evenodd" clip-rule="evenodd" d="M33.3732 27.7965L38.1948 31.582L31.3808 39.93L12.792 24.8278L37.079 16.1212C37.4377 15.9817 37.7764 15.8024 38.1151 15.5434C38.4538 15.2844 38.7726 15.0054 39.0316 14.6867C39.6492 13.9296 39.9281 13.1924 39.8086 12.4552C39.709 11.718 39.2308 11.0207 38.4139 10.3831C37.6568 9.78541 36.8599 9.54633 36.0032 9.62602C35.1464 9.70572 34.4292 10.1042 33.8514 10.8015C33.5127 11.2199 33.3135 11.6184 33.2138 12.0368C33.1341 12.4552 33.174 12.9134 33.3334 13.4115L24.6665 16.5993C23.6903 14.4675 23.3317 12.4153 23.5907 10.4429C23.8696 8.47044 24.7462 6.59761 26.2604 4.78455C28.6114 1.95538 31.5801 0.381404 35.1664 0.0626239C38.7526 -0.27608 42.06 0.759955 45.1083 3.1508C48.0172 5.44204 49.6708 8.25128 50.1092 11.5985C50.5475 14.9457 49.6708 17.9342 47.4792 20.5642C46.7221 21.4607 45.8256 22.2577 44.7895 22.9351C43.7535 23.6125 42.1596 24.3497 40.0278 25.1865L33.3732 27.7965Z" fill="#000823"/>
<path d="M52.4973 47.9998H27.4531L40.1844 32.4792L52.4973 47.9998Z" fill="#000823"/>
<path fill-rule="evenodd" clip-rule="evenodd" d="M67.1015 31.5425C67.3008 33.4951 66.2049 35.4077 64.2923 36.1449C62.021 37.0216 59.4707 35.866 58.5941 33.5947C57.7174 31.3234 58.873 28.7731 61.1443 27.8965C63.057 27.1593 65.1689 27.8566 66.3046 29.4505L77.2029 25.2865C73.6963 17.7553 64.9099 14.0893 57.0201 17.0978C48.7717 20.2458 44.6474 29.4705 47.7954 37.7189C50.9434 45.9673 60.1681 50.0915 68.4165 46.9436C76.3063 43.9351 80.4305 35.348 77.9998 27.3984L67.1015 31.5425Z" fill="#1434CB"/>
<path d="M4.30353 30.3658C6.6803 30.3658 8.60706 28.4391 8.60706 26.0623C8.60706 23.6855 6.6803 21.7588 4.30353 21.7588C1.92676 21.7588 0 23.6855 0 26.0623C0 28.4391 1.92676 30.3658 4.30353 30.3658Z" fill="#F97C00"/>
</svg>
