<svg width="300" height="150" viewBox="0 0 300 150" fill="none" xmlns="http://www.w3.org/2000/svg">
<path d="M111.424 79.2595L109.859 83.6931H109.729C109.468 82.6933 108.99 81.172 108.207 79.3464L99.8184 58.2653H91.6033V91.8647H97.0366V71.1313L96.9931 66.5239C96.9496 65.6111 96.8627 64.9156 96.8193 64.3941H96.9496C97.2104 65.698 97.5147 66.6543 97.732 67.2628L107.816 91.7778H111.641L121.638 67.0455C121.856 66.4804 122.073 65.3503 122.29 64.3941H122.421L122.16 70.4359V91.7343H127.941V58.1784H120.03L111.424 79.2595ZM133.418 67.654H139.068V91.7343H133.418V67.654ZM136.287 57.4829C135.33 57.4829 134.548 57.8307 133.896 58.4392C133.244 59.0477 132.896 59.8301 132.896 60.7864C132.89 61.2193 132.976 61.6485 133.148 62.0457C133.321 62.4428 133.576 62.7988 133.896 63.0901C134.548 63.6986 135.33 64.0029 136.287 64.0029C137.243 64.0029 138.069 63.6551 138.677 63.0901C138.998 62.7988 139.252 62.4428 139.425 62.0457C139.597 61.6485 139.683 61.2193 139.677 60.7864C139.677 59.8736 139.329 59.0912 138.677 58.4392C138.112 57.8307 137.286 57.4829 136.287 57.4829ZM159.106 67.4367C158.063 67.2194 156.977 67.089 155.933 67.089C153.369 67.089 151.022 67.654 149.066 68.7841C147.11 69.9143 145.545 71.4791 144.545 73.435C143.502 75.4345 142.98 77.7382 142.98 80.3896C142.98 82.6933 143.502 84.7363 144.502 86.6053C145.501 88.4309 146.892 89.9087 148.761 90.9085C150.544 91.9082 152.63 92.4298 154.977 92.4298C157.672 92.4298 159.976 91.8647 161.801 90.8215L161.845 90.7781V85.5621L161.627 85.736C160.802 86.3445 159.845 86.8661 158.889 87.1704C157.889 87.5181 156.977 87.692 156.194 87.692C153.934 87.692 152.152 87.04 150.891 85.6056C149.587 84.2147 148.935 82.3022 148.935 79.9115C148.935 77.4339 149.587 75.4779 150.935 74.0436C152.282 72.6092 154.064 71.8702 156.238 71.8702C158.063 71.8702 159.932 72.4788 161.627 73.6958L161.845 73.8697V68.3495L161.801 68.306C161.062 68.0018 160.237 67.654 159.106 67.4367ZM177.753 67.2628C176.362 67.2628 175.058 67.6975 173.928 68.6103C172.972 69.3927 172.32 70.5228 171.755 71.8702H171.712V67.654H166.061V91.7343H171.712V79.4334C171.712 77.347 172.146 75.6083 173.103 74.3478C174.059 73.0438 175.276 72.3918 176.754 72.3918C177.275 72.3918 177.797 72.5222 178.449 72.6092C179.057 72.783 179.492 72.9569 179.796 73.1742L180.014 73.3481V67.6975L179.883 67.654C179.492 67.3932 178.71 67.2628 177.753 67.2628ZM193.14 67.1324C189.185 67.1324 186.012 68.306 183.795 70.6097C181.535 72.9134 180.448 76.0865 180.448 80.0854C180.448 83.8235 181.578 86.8661 183.752 89.0829C185.925 91.2562 188.881 92.3863 192.575 92.3863C196.444 92.3863 199.53 91.2127 201.747 88.8656C204.007 86.5184 205.094 83.3888 205.094 79.5203C205.094 75.6953 204.05 72.6526 201.921 70.4359C199.878 68.2191 196.879 67.1324 193.14 67.1324ZM197.661 85.6491C196.618 86.9965 194.966 87.6485 192.923 87.6485C190.88 87.6485 189.228 86.9965 188.055 85.5621C186.881 84.2147 186.316 82.2587 186.316 79.7811C186.316 77.2166 186.925 75.2606 188.055 73.8697C189.228 72.4788 190.837 71.7833 192.88 71.7833C194.879 71.7833 196.444 72.4353 197.574 73.7828C198.704 75.1302 199.313 77.0862 199.313 79.6507C199.226 82.2587 198.748 84.3016 197.661 85.6491ZM217.699 77.6513C215.917 76.9123 214.787 76.3473 214.265 75.8691C213.83 75.4345 213.613 74.826 213.613 74.0436C213.613 73.3916 213.874 72.7396 214.526 72.3049C215.178 71.8702 215.917 71.6529 217.003 71.6529C217.96 71.6529 218.959 71.8268 219.916 72.0876C220.872 72.3484 221.741 72.7396 222.437 73.2612L222.654 73.435V68.1322L222.524 68.0887C221.872 67.8279 221.002 67.5671 219.959 67.3498C218.916 67.1759 217.96 67.089 217.177 67.089C214.482 67.089 212.266 67.741 210.527 69.1753C208.788 70.5228 207.962 72.3484 207.962 74.4782C207.962 75.6083 208.136 76.6081 208.528 77.4339C208.919 78.2598 209.484 79.0422 210.266 79.6942C211.049 80.3027 212.179 80.9982 213.743 81.6502C215.047 82.2152 216.047 82.6499 216.656 82.9976C217.264 83.3453 217.655 83.7365 217.96 84.0408C218.177 84.3885 218.307 84.8232 218.307 85.3883C218.307 86.9965 217.09 87.7789 214.613 87.7789C213.657 87.7789 212.657 87.605 211.483 87.2138C210.31 86.8226 209.223 86.2576 208.31 85.6056L208.093 85.4317V90.9519L208.223 90.9954C209.049 91.3866 210.049 91.6474 211.266 91.9517C212.483 92.169 213.57 92.3429 214.526 92.3429C217.438 92.3429 219.829 91.6909 221.524 90.2565C223.263 88.8656 224.175 87.0834 224.175 84.7797C224.175 83.1715 223.741 81.7371 222.784 80.6504C221.524 79.6072 219.959 78.5206 217.699 77.6513ZM239.084 67.1324C235.129 67.1324 231.956 68.306 229.739 70.6097C227.522 72.9134 226.392 76.0865 226.392 80.0854C226.392 83.8235 227.522 86.8661 229.696 89.0829C231.869 91.2562 234.825 92.3863 238.519 92.3863C242.388 92.3863 245.474 91.2127 247.691 88.8656C249.951 86.5184 251.038 83.3888 251.038 79.5203C251.038 75.6953 249.994 72.6526 247.864 70.4359C245.822 68.2191 242.822 67.1324 239.084 67.1324ZM243.561 85.6491C242.518 86.9965 240.866 87.6485 238.823 87.6485C236.737 87.6485 235.129 86.9965 233.955 85.5621C232.782 84.2147 232.217 82.2587 232.217 79.7811C232.217 77.2166 232.825 75.2606 233.955 73.8697C235.129 72.4788 236.737 71.7833 238.78 71.7833C240.736 71.7833 242.344 72.4353 243.474 73.7828C244.604 75.1302 245.213 77.0862 245.213 79.6507C245.213 82.2587 244.648 84.3016 243.561 85.6491ZM281.247 72.3049V67.654H275.552V60.5256L275.379 60.569L269.989 62.1773L269.858 62.2207V67.654H261.339V64.6114C261.339 63.2205 261.687 62.1338 262.295 61.4384C262.904 60.7429 263.817 60.3952 264.947 60.3952C265.729 60.3952 266.555 60.569 267.468 60.9602L267.685 61.0906V56.1789L267.555 56.1355C266.772 55.8747 265.729 55.7008 264.382 55.7008C262.686 55.7008 261.209 56.092 259.861 56.744C258.514 57.4829 257.514 58.4826 256.775 59.8301C256.036 61.1341 255.645 62.6119 255.645 64.3071V67.654H251.689V72.2614H255.645V91.7343H261.339V72.3049H269.858V84.6928C269.858 89.7783 272.249 92.3429 277.03 92.3429C277.813 92.3429 278.639 92.2125 279.421 92.0821C280.247 91.9082 280.855 91.6909 281.203 91.517L281.247 91.4735V86.8226L281.029 86.9965C280.681 87.2138 280.377 87.3877 279.856 87.5181C279.421 87.6485 279.03 87.692 278.725 87.692C277.595 87.692 276.813 87.4312 276.248 86.7792C275.726 86.1706 275.466 85.1709 275.466 83.6931V72.3049H281.247Z" fill="#1434CB" fill-opacity="1"/>
<path d="M18.7539 46.9641H45.3987V73.6089H18.7539V46.9641Z" fill="#1434CB" fill-opacity="1"/>
<path d="M48.1805 46.9641H74.8254V73.6089H48.1805V46.9641Z" fill="#1434CB" fill-opacity="1"/>
<path d="M18.7539 76.3907H45.3987V103.036H18.7539V76.3907Z" fill="#1434CB" fill-opacity="1"/>
<path d="M48.1805 76.3907H74.8254V103.036H48.1805V76.3907Z" fill="#1434CB" fill-opacity="1"/>
</svg>
