<svg width="88" height="72" viewBox="0 0 88 72" fill="none" xmlns="http://www.w3.org/2000/svg">
<path d="M88 8.52319C84.7047 9.9929 81.2095 10.9576 77.6304 11.3853C81.3584 9.13575 84.2208 5.57358 85.5687 1.32928C82.0248 3.44653 78.1475 4.93827 74.1042 5.74004C70.8108 2.20763 66.1189 0 60.9259 0C50.9551 0 42.8711 8.13836 42.8711 18.176C42.8711 19.6008 43.031 20.9879 43.3386 22.3185C28.3339 21.5603 15.0308 14.3241 6.12597 3.32719C4.57222 6.01171 3.68191 9.13437 3.68191 12.465C3.68191 18.7712 6.8695 24.3344 11.7136 27.5941C8.84658 27.5037 6.04261 26.7241 3.53581 25.3204C3.53478 25.3965 3.53478 25.4727 3.53478 25.5492C3.53478 34.3558 9.75803 41.7023 18.017 43.3721C15.3584 44.1001 12.5697 44.2066 9.86391 43.6836C12.1612 50.9049 18.8289 56.1597 26.729 56.3068C20.5501 61.1816 12.7652 64.0876 4.30684 64.0876C2.84934 64.0876 1.41247 64.0015 0 63.8336C7.98978 68.9909 17.4797 72 27.6753 72C60.884 72 79.0433 44.3031 79.0433 20.2839C79.0433 19.4956 79.0261 18.7117 78.991 17.9323C82.5256 15.3599 85.5763 12.1737 88 8.52319Z" fill="#1434CB" fill-opacity="1"/>
</svg>
